<svg width="18" height="13" viewBox="0 0 18 13" fill="none" xmlns="http://www.w3.org/2000/svg">
<path fill-rule="evenodd" clip-rule="evenodd" d="M16.712 0.0758362H15.6773C15.1059 0.0758362 14.6427 0.584603 14.6427 1.2122V11.0607C14.6427 11.6883 15.1059 12.197 15.6773 12.197H16.712C17.2834 12.197 17.7467 11.6883 17.7467 11.0607V1.2122C17.7467 0.584603 17.2834 0.0758362 16.712 0.0758362ZM10.8489 2.72726H11.8835C12.455 2.72726 12.9182 3.23603 12.9182 3.86362V11.0606C12.9182 11.6882 12.455 12.197 11.8835 12.197H10.8489C10.2775 12.197 9.81422 11.6882 9.81422 11.0606V3.86362C9.81422 3.23603 10.2775 2.72726 10.8489 2.72726ZM7.05515 5.37896H6.02048C5.44905 5.37896 4.98581 5.88773 4.98581 6.51532V11.0608C4.98581 11.6884 5.44905 12.1971 6.02048 12.1971H7.05515C7.62658 12.1971 8.08981 11.6884 8.08981 11.0608V6.51532C8.08981 5.88773 7.62658 5.37896 7.05515 5.37896ZM2.22668 7.65169H1.19202C0.620585 7.65169 0.157349 8.16045 0.157349 8.78805V11.0608C0.157349 11.6884 0.620585 12.1971 1.19202 12.1971H2.22668C2.79811 12.1971 3.26135 11.6884 3.26135 11.0608V8.78805C3.26135 8.16045 2.79811 7.65169 2.22668 7.65169Z" fill="black"/>
</svg>
