<svg width="17" height="14" viewBox="0 0 17 14" fill="none" xmlns="http://www.w3.org/2000/svg">
<path fill-rule="evenodd" clip-rule="evenodd" d="M8.85285 3.28981C11.1547 3.28992 13.3685 4.26051 15.0368 6.00095C15.1624 6.13532 15.3632 6.13362 15.4869 5.99715L16.6878 4.66723C16.7504 4.59801 16.7854 4.50425 16.7848 4.4067C16.7843 4.30914 16.7484 4.21583 16.685 4.14742C12.3064 -0.457385 5.39861 -0.457385 1.01999 4.14742C0.956563 4.21578 0.920575 4.30906 0.91999 4.40662C0.919405 4.50417 0.954272 4.59796 1.01687 4.66723L2.21807 5.99715C2.34171 6.13383 2.54266 6.13553 2.66821 6.00095C4.33667 4.26039 6.55076 3.28981 8.85285 3.28981ZM8.85283 7.61656C10.1175 7.61648 11.3371 8.13233 12.2746 9.0639C12.4014 9.19611 12.6012 9.19324 12.7248 9.05744L13.9242 7.72752C13.9874 7.65776 14.0224 7.56313 14.0215 7.46479C14.0206 7.36645 13.9838 7.27262 13.9194 7.20429C11.0646 4.29019 6.64352 4.29019 3.78871 7.20429C3.72422 7.27262 3.68743 7.3665 3.68658 7.46487C3.68574 7.56324 3.72091 7.65786 3.7842 7.72752L4.98332 9.05744C5.10692 9.19324 5.30667 9.19611 5.43346 9.0639C6.37032 8.13295 7.58894 7.61714 8.85283 7.61656ZM11.2556 10.5278C11.2574 10.6264 11.2221 10.7215 11.1579 10.7906L9.08311 13.0883C9.02228 13.1558 8.93936 13.1938 8.85284 13.1938C8.76632 13.1938 8.6834 13.1558 8.62257 13.0883L6.54741 10.7906C6.4833 10.7214 6.44804 10.6263 6.44994 10.5277C6.45184 10.4291 6.49074 10.3357 6.55745 10.2696C7.88251 9.03975 9.82317 9.03975 11.1482 10.2696C11.2149 10.3358 11.2537 10.4292 11.2556 10.5278Z" fill="black"/>
</svg>
