<svg width="34" height="34" viewBox="0 0 34 34" fill="none" xmlns="http://www.w3.org/2000/svg">
<path id="Star 1" d="M13.5865 7.48928L14.971 2.39166L18.0156 6.7083C18.57 7.49431 19.6548 7.68558 20.4445 7.13659L24.7819 4.12158L24.3395 9.38532C24.2589 10.3438 24.9669 11.1876 25.9248 11.2747L31.1854 11.753L27.4631 15.5009C26.7853 16.1834 26.7853 17.2849 27.4631 17.9673L31.1854 21.7152L25.9248 22.1936C24.9669 22.2807 24.2589 23.1245 24.3395 24.083L24.7819 29.3467L20.4445 26.3317C19.6548 25.7827 18.57 25.974 18.0156 26.76L14.971 31.0766L13.5865 25.979C13.3344 25.0508 12.3804 24.5 11.4505 24.7458L6.34354 26.0955L8.55958 21.3005C8.96309 20.4274 8.58634 19.3923 7.71601 18.9829L2.93627 16.7341L7.71601 14.4854C8.58634 14.0759 8.96309 13.0408 8.55958 12.1677L6.34354 7.37275L11.4505 8.72248C12.3804 8.96825 13.3344 8.41749 13.5865 7.48928Z" stroke="white" stroke-width="2.5"/>
</svg>
